<?xml version="1.0" encoding="UTF-8"?> <!-- Creator: CorelDRAW 2018 (64-Bit) --> <svg xmlns="http://www.w3.org/2000/svg" xmlns:xlink="http://www.w3.org/1999/xlink" xml:space="preserve" width="98.6606mm" height="82.9136mm" style="shape-rendering:geometricPrecision; text-rendering:geometricPrecision; image-rendering:optimizeQuality; fill-rule:evenodd; clip-rule:evenodd" viewBox="0 0 91261.15 76695.16"> <defs> <style type="text/css"> <![CDATA[ .fil12 {fill:#513997;fill-rule:nonzero} .fil0 {fill:#513997;fill-rule:nonzero} .fil1 {fill:#7D5AD0;fill-rule:nonzero} .fil13 {fill:#7D5AD0;fill-rule:nonzero} .fil6 {fill:#B2C2D1;fill-rule:nonzero} .fil8 {fill:#B82786;fill-rule:nonzero} .fil14 {fill:#B82786;fill-rule:nonzero} .fil5 {fill:#C3D1DE;fill-rule:nonzero} .fil2 {fill:#E8C92E;fill-rule:nonzero} .fil11 {fill:#FE368E;fill-rule:nonzero} .fil15 {fill:#FE368E;fill-rule:nonzero} .fil4 {fill:#FFAEA0;fill-rule:nonzero} .fil10 {fill:#FFAEA0;fill-rule:nonzero} .fil7 {fill:#FFB8B2;fill-rule:nonzero} .fil9 {fill:#FFB8B2;fill-rule:nonzero} .fil3 {fill:#FFE14F;fill-rule:nonzero} ]]> </style> </defs> <g id="Слой_x0020_1"> <metadata id="CorelCorpID_0Corel-Layer"></metadata> <polygon class="fil0" points="7128.8,76695.16 30249.2,76695.16 30249.2,71474.45 7128.8,71474.45 "></polygon> <polygon class="fil1" points="-0,76695.16 23120.4,76695.16 23120.4,71474.45 -0,71474.45 "></polygon> <polygon class="fil2" points="39344.73,76693.96 56560.75,76693.96 56560.75,52630.8 39344.73,52630.8 "></polygon> <polygon class="fil3" points="34036.89,76693.96 51252.27,76693.96 51252.27,52630.8 34036.89,52630.8 "></polygon> <polygon class="fil2" points="51252.27,52630.89 56560.57,56243.94 56560.57,52630.89 "></polygon> <path class="fil4" d="M66613.39 18658.56c-266.22,-40.42 -1068.38,700.97 -1068.38,700.97l0 0c-1712.36,197.86 -4215.88,652.68 -5117.01,826.12 -639.55,123.03 -2357.64,-462.78 -4036.24,-1135.35 -1996.34,-800.22 -3935.97,-1723.46 -3935.97,-1723.46 -1107.87,-56.43 -2365.69,1964.42 -119.14,3249.34 342.99,196.29 1631.15,530.95 3115.03,836.66 0,0 0,0 0,-0.28 2046.66,421.71 4465.07,787.92 5287.77,659.16 955.99,-149.57 3662.36,-1139.51 5272.23,-1897.55l0 0c0,0 1.76,-0.83 4.07,-2.04 6.29,-2.87 11.93,-5.64 17.67,-8.42 96.66,-45.23 490.62,-220.71 753.97,-205.17 301.74,17.85 973.29,-534.1 993.91,-681.36 20.07,-147.26 -901.6,-578.22 -1167.91,-618.64z"></path> <path class="fil5" d="M64522.52 44117.27l-942.95 191.66c0,0 -4314.94,-4848.21 -4980.76,-6888.3 -356.13,-1090.3 -2634.13,-1561.31 -5015.17,-2176.8 -2072,-535.76 -4221.7,-1181.23 -5248.27,-2440.52 -2207.05,-2706 1385.56,-6030.82 1385.56,-6030.82 0,0 3820.35,2270.23 7115.66,4615.75 2303.25,1639.1 4350.46,3314.83 4659.04,4277.85 749.44,2342.01 2338.22,6793.85 3026.88,8451.18z"></path> <path class="fil0" d="M63260.17 45716.6l530.67 0c177.51,-27.84 308.58,-79.27 490.71,-103.05 277.13,-36.35 404.13,77.05 429.39,103.05 3.42,3.52 5.18,5.37 5.18,5.37l2252.84 0c56.61,-80.85 2.22,-268.44 -50.97,-406.35 -35.52,-93.8 -114.05,-164.84 -210.72,-192.86 -238.74,-69.19 -709.94,-130.7 -1141.64,-521.33 -242.07,-219.13 -1171.24,-806.32 -1171.24,-806.32l-5.27 -1.11c-20.54,0.46 -117.38,30.25 -540.48,387.21 -218.02,183.98 -590.8,-260.2 -590.8,-260.2 0,0 -69.84,57.81 -121.92,165.67 -41.81,85.01 -72.71,201.84 -48.66,345.86 33.76,203.04 -74.37,580.16 -161.51,835.37 -52.08,154.66 -96.11,264.37 -96.11,264.37 0,0 -25.81,127.37 430.5,184.35z"></path> <path class="fil6" d="M56836.59 31388.24l-3252.95 3855.59c-2072,-535.76 -4221.7,-1181.23 -5248.27,-2440.52 -2207.05,-2706 1385.56,-6030.82 1385.56,-6030.82 0,0 3820.35,2270.23 7115.66,4615.75z"></path> <path class="fil5" d="M53880.75 29374.33c0,0 -262.33,826.86 -689.31,2070.98 -539.92,1573.06 -1343.75,3812.95 -2215.56,5890.13 -191.85,456.4 -387.11,905.21 -583.4,1337.18 -725.48,1598.49 -1467.42,2968.7 -2121.21,3664.95 -1174.84,1251.8 -4029.95,9299.31 -4029.95,9299.31l-711.6 -196.84c0,0 -992.16,-6871.74 2521.92,-10782.18 37.83,-41.72 66.97,-90 71.04,-145.97 0.56,-0.46 0.56,-0.93 0.56,-1.39 46.9,-578.87 214.14,-3171 578.22,-5797.63 89.26,-644.45 190.64,-1290.47 303.96,-1909.48 7.4,-39.68 14.99,-78.81 22.39,-117.85 534.1,-2862.51 1045.99,-4135.68 1706.63,-4775.96l4858.94 1382.88 287.4 81.86z"></path> <path class="fil0" d="M43450.25 52625.62l530.67 0c177.42,-27.94 308.49,-79.55 490.53,-103.51 277.13,-36.17 404.32,77.33 429.48,103.51 3.33,3.52 5.09,5.27 5.09,5.27l2252.84 0c56.7,-81.4 2.31,-268.53 -50.97,-406.63 -36.08,-93.8 -113.87,-164.84 -210.72,-192.86 -239.3,-69.28 -709.85,-130.52 -1141.54,-521.05 -242.72,-219.23 -1171.88,-806.51 -1171.88,-806.51l-4.63 -1.2c-20.63,0.56 -117.38,30.34 -540.48,386.93 -218.02,184.45 -590.71,-259.93 -590.71,-259.93 0,0 -69.93,57.81 -122.1,165.48 -41.72,85.29 -72.61,202.11 -48.66,346.41 33.86,202.58 -74.37,579.98 -160.77,835.28 -52.73,154.66 -97.4,264 -97.4,264 0,0 -25.16,127.56 431.24,184.82z"></path> <path class="fil7" d="M44492.08 20028.4c0,0 -812.89,1988.66 -1750.1,3924.41 -788.38,1627.54 -1664.26,3217.34 -2219.63,3556.54 -783.2,478.5 -2940.39,1827.89 -4340.2,2834.67 0,0 -1091.78,-8.42 -1261.89,200.73 -169.46,209.14 -561.11,1148.48 -446.5,1243.57 114.52,95.09 982.35,50.97 1193.07,-165.3 184.35,-188.52 593.76,-324.12 695.6,-355.66 6.38,-1.94 12.67,-3.79 18.87,-5.83 2.96,-0.74 4.72,-1.2 4.72,-1.2l0 0c1700.24,-523.18 4368.22,-1613.29 5175.47,-2146.28 695.6,-459.08 2236.84,-2357.55 3465.89,-4047.34 0.56,-0.09 0.56,-0.09 0.56,-0.09 891.42,-1224.89 1618.57,-2339.97 1739.93,-2715.8 796.33,-2462.35 -1494.8,-3109.76 -2275.78,-2322.4z"></path> <path class="fil8" d="M48743.57 12230.08c-96.11,-140.6 -193.97,-264.83 -290.82,-376.2 120.25,2.59 250.12,-9.25 358.35,-53.93 285.73,-118.03 415.7,-1023.79 372.68,-1292.6 -42.92,-268.53 -439.1,-1045.53 -927.96,-1123.04 -488.96,-77.42 -993.91,465.37 -993.91,465.37 90.56,-391.74 917.14,-617.81 917.14,-617.81 -1703.2,314.04 -1616.16,1450.22 -1604.78,1555.02 -1558.9,-555.37 -2474.29,2380.86 -2474.29,2380.86l4039.02 2380.21c0,0 10.36,-648.7 395.72,-606.8 601.07,65.12 1101.4,-1410.53 208.87,-2711.09z"></path> <path class="fil9" d="M49001.18 18391.24c-926.85,436.79 -2156.55,-192.31 -2150.35,-198.97 79.55,-79.46 51.62,-317.46 -21.09,-628.45 -72.8,-324.4 -245.13,-768.03 -562.86,-1297.41 -65.86,-112.67 -132.28,-225.15 -211.83,-344.38l105.91 -39.59 1800.51 -721.5c0,0 291.47,522.81 596.07,999.46 258.26,397.1 529.56,754.62 648.52,741.48 7.03,-6.66 1198.34,814.09 -204.89,1489.34z"></path> <path class="fil10" d="M47961.48 15339.57c-46.34,642.04 -264.46,1800.51 -1131.74,2224.26 -72.8,-324.4 -245.13,-768.03 -562.86,-1297.41l1694.6 -926.85z"></path> <path class="fil7" d="M46161.52 16997.17c0,0 2344.51,-923.98 1746.22,-2374.94 -597.74,-1450.86 -697.91,-2547.27 -2219.63,-2018.72 -1521.72,528.45 -1582.95,1201.3 -1501.09,1734.1 81.86,532.71 1349.3,2862.42 1974.51,2659.56z"></path> <path class="fil8" d="M47035.84 14291.36c1082.53,-152.81 1398.69,-590.24 1398.69,-590.24 0,0 -996.87,-286.01 -1582.49,-1262.16 0,0 -1216.65,-410.33 -2118.34,275.56 -54.85,71.23 -94.44,155.31 -113.96,254.19 -206.65,-67.8 -517.45,-50.14 -696.62,533.91 -269.18,877.27 688.76,1835.2 688.76,1835.2 232.36,-65.77 -29.88,-847.58 -66.6,-1264.85 -26.83,-307.1 139.21,-700.04 228.48,-886.52 114.52,148.83 1256.71,1583.69 2650.78,1641.04 0,0 -736.76,-255.49 -1407.3,-755.45 333.83,163.82 688.2,266.03 1018.61,219.32z"></path> <path class="fil11" d="M53463.94 21380.56c-20.07,-69.93 -41.26,-142.54 -63.55,-217.1 348.08,-665.45 519.2,-1265.03 591.45,-1772.67 159.1,-1072.45 -112.3,-1734.47 -112.3,-1734.47 0,0 -1625.87,-862.19 -2343.86,-971.99 -3.33,-1.11 -6.29,-2.22 -9.16,-2.68 -8.6,-1.11 -18.22,-1.94 -28.58,-2.68 -724.83,-99.9 -2294.09,220.43 -2294.09,220.43 0,0 302.94,805.68 -550.75,1342.82 -854.15,537.15 -1766.1,-137.64 -1766.1,-137.64 -27.57,18.59 -56.8,38.94 -86.58,60.31l-0.56 -0.09c0,0 -2246.55,1482.41 -2448.01,1821.14 -202.11,338.92 -1066.06,2016.13 -1066.06,2016.13 0,0 274.26,1407.94 3309.19,1525.79 249.66,605.14 440.86,1195.38 502.65,1687.76 240.96,1911.42 -38.94,3419.27 242.17,4534.82 281.11,1115.83 5344.93,479.52 6262.07,264.92 917.23,-214.69 710.49,-1193.9 781.44,-2145.26 88.8,-1195.38 -620.49,-5434.94 -919.36,-6489.53z"></path> <path class="fil8" d="M53991.84 19390.79c-72.8,509.58 -244.48,1112.04 -595.52,1780.53 -79.55,-350.76 -403.58,-1634.94 -926.85,-2217.5 0,0 880.6,79.55 1522.37,436.97z"></path> <path class="fil4" d="M33372.74 31917.9c0,0 943.59,-1143.3 1146.82,-1278.44 203.32,-135.14 1094.09,-372.04 1144.97,-324.4 50.97,47.73 53.28,116.83 -57.26,214.32 -109.89,97.4 -531.69,343.45 -471.66,371.11 60.68,27.84 1331.63,-605.14 1515.43,-392.29 183.24,212.94 -104.25,1091.69 -594.31,1513.02 -489.51,421.25 -1952.21,600.97 -2043.88,659.71 -780.33,498.76 -640.1,-763.03 -640.1,-763.03z"></path> <path class="fil7" d="M16762.59 29277.94c0,0 1355.68,1608.02 3081.27,935.36 0,0 371.48,-898.08 376.66,-1560.2 0.56,-81.4 1.76,-160.21 2.87,-235.51 9.16,-745.37 34.41,-1163.65 34.41,-1163.65 0,0 -0.65,-0.09 -1.76,-0.37 -78.53,-32.75 -2638.75,-1083.73 -2636.44,-996.5 44.12,2016.22 -857.01,3020.87 -857.01,3020.87z"></path> <path class="fil4" d="M17876.66 26737.89c246.79,457.51 1094.09,1352.81 2346.73,1679.71 9.16,-745.37 34.41,-1163.65 34.41,-1163.65 0,0 -0.65,-0.09 -1.76,-0.37 -71.04,-19.06 -2452.64,-650.65 -2379.38,-515.69z"></path> <path class="fil7" d="M20794.21 27176.53c0,0 -2879.16,676.82 -3273.12,-1122.58 -393.77,-1799.4 -1031.1,-2923.84 790.69,-3432.12 1821.79,-508.2 2330.17,99.99 2607.76,668.59 277.69,568.69 613.09,3663.65 -125.34,3886.11z"></path> <path class="fil12" d="M17619.6 26544.2c-39.5,25.25 -658.88,215.53 -1831.96,-2121.67 -184.45,-366.86 -309.78,-1160.51 119.51,-1861.75 429.48,-701.34 1951.84,-1252.64 3216.41,-1492.67 1264.66,-239.85 1568.06,471.75 1865.91,1187.05 312.56,750.73 1215.36,1368.72 1215.36,1368.72 -1090.02,609.21 -2403.89,-262.05 -2859.18,-118.77 -455.1,143.38 -615.31,860.44 -649.72,1090.48 -34.32,229.68 -86.49,420.69 -658.97,215.43 -571.93,-205.26 -258.82,810.95 -167.15,1005.2 0,0 77.89,517.72 -250.21,727.98z"></path> <path class="fil0" d="M10203.22 71474.45l-1743.26 0c-365.38,0 -771.54,-371.02 -873.29,-1049.41 -101.66,-679.51 -852.76,-1050.06 -1015.37,-1605.89 -162.71,-555.37 670.35,-1338.01 670.35,-1338.01l139.21 -181.49 144.95 -188.89 1380.84 329.12c0,0 34.04,333.28 55.41,758.04 14.8,306.27 22.76,660.82 5.55,970.97 -40.61,741.48 204.89,1538.92 854.42,1683.13 650.09,144.3 381.19,622.43 381.19,622.43z"></path> <path class="fil0" d="M22338.77 71491.1l-4620.75 0c-44.03,-8.6 -77.79,-18.41 -97.87,-29.32 -308.49,-159.1 -211.73,-1375.2 -175.2,-1750.66 7.4,-69.93 12.67,-110.54 12.67,-110.54 0,0 1624.67,-1337.92 1848.06,-313.11 7.49,31.45 15.36,62.9 24.05,93.8l0 0.74c282.13,958.3 1542.9,1393.98 2271.71,1515.34 556.48,93.33 700.78,426.98 737.32,593.76z"></path> <path class="fil3" d="M21407.85 44769.21c0,0 -246.7,3078.77 -536.96,6779.61 -394.42,5027.75 -868.58,11203.33 -914.83,12373 -81.31,2031.3 -406.54,5280.92 -406.54,5280.92 0,0 -771.73,772.28 -2315.74,446.5 0,0 -1375.85,-4638.42 -1768.6,-9546.66 -6.2,-80.66 -12.49,-161.32 -18.22,-242.72 -365.84,-4996.21 -934.44,-15517.17 -934.44,-15517.17l6895.33 426.52z"></path> <path class="fil2" d="M21407.85 44769.21c0,0 -246.7,3078.77 -536.96,6779.61l-5405.71 8553.76c-6.2,-80.66 -12.49,-161.32 -18.22,-242.72 -365.84,-4996.21 -934.44,-15517.17 -934.44,-15517.17l6895.33 426.52z"></path> <path class="fil3" d="M20280.65 45134.87c0,0 -4447.87,11150.33 -7372.81,16390.46 -2924.39,5240.13 -3838.38,6702.37 -3838.38,6702.37 0,0 -1675.73,-669.79 -1827.99,-1127.21 0,0 1118.42,-10116.27 3077.02,-12582.14 1106.86,-1393.51 2406.67,-5575.17 2468,-7037.87 60.68,-1462.24 395.53,-4356.38 395.53,-4356.38l7098.64 2010.77z"></path> <path class="fil4" d="M10096.76 43277.93c0,0 -115.16,1392.5 -199.62,1606.26 -84.55,213.86 -646.67,876.81 -711.79,867.28 -65.31,-9.53 -104.16,-61.79 -71.23,-196.66 33.02,-134.96 226.9,-551.86 165.48,-541.22 -61.51,10.92 -705.13,1184.93 -961.35,1118.88 -256.41,-66.14 -507.09,-900.95 -354.55,-1490.45 152.53,-589.69 1187.89,-1515.61 1227.48,-1610.61 335.13,-805.68 905.58,246.51 905.58,246.51z"></path> <path class="fil12" d="M9619.45 43631.09c492.29,157.99 571.19,122.29 571.19,122.29 0,0 2396.03,-4362.67 2638.84,-4762.09 242.72,-399.42 5087.78,-4892.24 5087.78,-4892.24l-1245.24 -4643.04c0,0 -5510.42,7136.01 -6105.56,8159.9 -983.28,1692.1 -1559.46,5621.97 -1559.46,5621.97 0,0 225.7,268.99 612.44,393.22z"></path> <path class="fil1" d="M22346.82 35921.86c-17.21,953.58 -72.71,2025.47 -147.72,3114.11 -4.53,64.57 -9.16,129.13 -13.69,193.6 -47.64,674.42 -99.62,1350.5 -159.19,2009.56 -23.4,264.37 -49.21,525.59 -75.57,782.18l-4.07 34.6c-1.57,96.11 -13.69,200.26 -24.05,295.35 -243.18,2469.11 -498.02,4419.93 -544.92,4449.62 -56.7,37.83 -120.34,56.7 -189.53,48.1 -647.5,-81.31 -2579.74,65.95 -4160.93,-278.33 -1334.59,-281.57 -2484.18,-815.11 -3701.95,-1534.85 -161.41,-95.55 -530.12,-348.63 -499.87,-537.7 29.32,-207.94 83.62,-508.38 153,-885.78 239.85,-1313.41 653.7,-3572.54 795.13,-6216.38 27.57,-492.66 67.62,-979.02 119.7,-1457.25 135.7,-1245.61 353.17,-2428.77 645.19,-3480.04 542.24,-1952.58 1339.12,-3447.85 2338.77,-4032.82 130.52,-73.26 833.52,373.98 1478.8,788.29 596.53,382.21 1223.96,487.94 1834.28,434.57l536.96 594.04c651.02,756.28 1343.66,1763.24 1532.73,3194.31 14.25,105.82 26.36,218.21 36.54,337.53 52.17,583.03 65.21,1320.9 50.41,2147.3z"></path> <path class="fil12" d="M22346.82 35921.86c-17.21,953.58 -72.71,2025.47 -147.72,3114.11 -4.53,64.57 -9.16,129.13 -13.69,193.6 -3698.43,-2315 -4268.14,-6551.32 -4268.14,-6551.32 1819.48,79.83 3265.16,498.21 4379.14,1096.31 52.17,583.03 65.21,1320.9 50.41,2147.3z"></path> <path class="fil1" d="M33934.49 32032.23c-190.64,-515.69 -487.29,-482.2 -487.29,-482.2 0,0 -5499.5,1370.39 -5992.99,1429.31 -492.93,58.83 -5921.58,-2119.64 -5921.58,-2119.64 0,0 -2136.57,-958.86 -3137.23,-83.34 -869.59,760.81 -909.18,1724.76 -705.96,2534.04 242.72,964.59 1058.57,1677.12 2045.64,1802.73 2214.45,282.13 6633,813.08 7558.83,684.22 2061.09,-287.03 6731.6,-2982.94 6731.6,-2982.94 0,0 58.28,-376.94 -91.02,-782.18z"></path> <path class="fil5" d="M88158.32 42111.69c0,0 763.87,708 615.31,1211.1 -149.76,503.11 -838.24,838.51 -932.31,1453.55 -92.87,614.94 -465.55,950.25 -801.14,950.25 -335.5,0 -1598.68,0 -1598.68,0 0,0 -247.35,-432.72 349.47,-563.23 596.72,-130.33 820.85,-852.85 783.66,-1523.75 -37.09,-670.9 55.78,-1565.19 55.78,-1565.19l1266.6 -298.31 261.31 335.59z"></path> <path class="fil5" d="M78636.73 45642.88c-77.79,38.94 -349.47,65.77 -723.35,83.62l-3616.57 0c12.77,-107.49 96.39,-490.9 687.37,-586.36 668.78,-108.5 1825.12,-496.91 2082.82,-1351.24 9.34,-27.29 16.28,-55.69 23.22,-83.71 204.33,-913.07 1695.16,279.35 1695.16,279.35 0,0 4.63,36.45 11.56,98.79 34.87,335.59 123.12,1418.4 -160.21,1559.55z"></path> <path class="fil13" d="M75161.78 21221c0,0 226.44,2824.95 492.29,6220.35 361.12,4612.52 796.43,10278.24 839.44,11351.52 74.28,1863.78 372.68,4845.06 372.68,4845.06 0,0 708.18,708.37 2124.63,409.68 0,0 1262.07,-4255.84 1623.1,-8758.74 5.83,-73.72 11.66,-148 16.28,-222.46 335.5,-4584.03 856.83,-14236.5 856.83,-14236.5l-6325.25 391.09z"></path> <path class="fil0" d="M75161.78 21221c0,0 226.44,2824.95 492.29,6220.35l4959.86 7847.52c5.83,-73.72 11.66,-148 16.28,-222.46 335.5,-4584.03 856.83,-14236.5 856.83,-14236.5l-6325.25 391.09z"></path> <path class="fil13" d="M76195.1 21556.59c0,0 4081.01,10230.05 6764.16,15037.65 2684.26,4807.69 3522.5,6149.22 3522.5,6149.22 0,0 1537.17,-614.85 1676.56,-1034.06 0,0 -1025.27,-9281.37 -2822.46,-11543.83 -1015.93,-1278.54 -2208.35,-5115.07 -2264.03,-6456.78 -55.69,-1341.62 -364.54,-3996.93 -364.54,-3996.93l-6512.19 1844.73z"></path> <path class="fil9" d="M63608.24 16008.07c0,0 -1106.67,-253.08 -1293.24,-240.22 -186.11,12.86 -837.68,285.27 -846.19,338.18 -9.16,52.73 21.74,95.83 134.59,103.32 112.76,7.68 483.13,-40.05 459.63,4.9 -23.5,44.77 -1091.13,254.75 -1102.6,469.62 -12.12,214.79 573.04,614.2 1067.17,641.03 494.04,26.73 1465.57,-547.42 1549.19,-554.72 706.42,-61.7 31.45,-762.11 31.45,-762.11z"></path> <path class="fil2" d="M63134.74 16289.27c-159.1,-505.61 -121.82,-586.17 -121.82,-586.17 0,0 4487.27,-2426.28 4897.69,-2672.24 411.16,-246.05 5047.55,-5180.65 5047.55,-5180.65l4749.79 1307.21c0,0 -7349.78,5598.94 -8403.26,6201.76 -1740.39,996.32 -5771.45,1560.29 -5771.45,1560.29 0,0 -274.26,-233.19 -398.49,-630.2z"></path> <path class="fil9" d="M74397.83 5451.31c0,0 -1664.91,2929.76 -3292.63,3312.06 0,0 67.34,-983.92 463.24,-1657.23 -161.41,-191.29 -304.14,-367.23 -427.26,-524.57 -409.87,-525.03 -604.86,-846.28 -604.86,-846.28l552.6 -1485 375 -1007.42c180.01,326.9 378.51,605.6 585.16,843.79 1066.99,1226.27 2348.76,1364.65 2348.76,1364.65z"></path> <path class="fil4" d="M72049.06 4086.65c0,0 198.6,1468.16 -907.89,2494.91 -409.87,-525.03 -604.86,-846.28 -604.86,-846.28l552.6 -1485c592.19,-180.47 960.15,-163.63 960.15,-163.63z"></path> <path class="fil9" d="M70097.68 5951.73c0,0 2487.79,-969.96 1859.71,-2509.81 -628.17,-1540.03 -729.18,-2702.39 -2344.14,-2148.22 -1614.96,554.17 -1681.93,1266.79 -1597.2,1831.78 84.08,565.08 1418.67,3038.81 2081.62,2826.25z"></path> <path class="fil3" d="M82949.92 20485.07c-1004.27,1442.82 -8507.97,3370.7 -8418.53,2371.98 33.67,-382.21 80.11,-1056.17 -1.2,-1969.88 -18.59,-214.05 -45.23,-440.76 -80.11,-680.62 -190.37,-1312.3 -643.15,-2999.78 -1653.25,-4952.83 -75.48,-146.43 -154.48,-293.87 -235.69,-443.26 -415.7,-756.28 -770.99,-1555.76 -1040.35,-2337.48 -520.13,-1502.29 -730.2,-2939.65 -467.87,-3879.36 1.2,-4.63 3.52,-8.6 4.63,-13.23 1568.62,-725.29 2175.79,-3537.94 2175.79,-3537.94 0,0 5351.13,960.61 8348.87,8093.3 0,0 2240.81,6093.44 1367.71,7349.32z"></path> <path class="fil2" d="M74530.19 20887.17c-18.59,-214.05 -45.23,-440.76 -80.11,-680.62 -190.37,-1312.3 -643.15,-2999.78 -1653.25,-4952.83 174.09,-1051.17 413.29,-1925.3 675.71,-2318.7 1066.9,-1599.42 1689.24,-1849.45 1689.24,-1849.45 0,0 1599.88,6749.45 -631.59,9801.59z"></path> <path class="fil9" d="M66095.29 19281.18c0,0 -1480.56,77.79 -1710.14,160.49 -229.03,82.6 -949.79,657.86 -941.74,727.14 7.96,69.28 61.7,112.3 206.09,81.59 143.65,-30.62 592.56,-222.93 578.87,-158.08 -13.23,64.75 -1279,709.85 -1217.21,983.74 62.44,273.99 939.43,566.29 1569.82,423.37 629.74,-142.91 1644.84,-1211.01 1746.68,-1250.05 865.15,-329.86 -232.36,-968.2 -232.36,-968.2z"></path> <path class="fil3" d="M65815.76 19842.57c-296.46,-479.06 -82.42,-697.64 -82.42,-697.64 0,0 4572.74,-3580.31 4930.62,-3942.08 358.81,-361.68 2019,-6121.1 2019,-6121.1 0,0 571.28,-2330.91 1909.94,-2587.97 1163.37,-223.39 1966.74,351.96 2492.69,1026.47 626.97,803.83 688.48,1912.44 168.35,2788.88 -1168,1967.48 -3523.7,5872.74 -4211.07,6539.85 -1530.23,1484.9 -6652.24,3560.05 -6652.24,3560.05 0,0 -341.79,-190.18 -574.89,-566.47z"></path> <path class="fil12" d="M72315 581.18c17.39,-34.32 68.45,-71.13 191.57,-108.97 0,0 -116.09,-38.94 -250.77,-9.25 -69.65,-170.48 -239.21,-460.74 -558.52,-462.96 0,0 183.43,47.64 250.77,230.42 -436.51,-276.67 -1245.79,-356.96 -3264.51,315.61 -2661.51,886.43 -1331.63,2431.27 -928.61,2555.32 403.67,123.77 1146.17,-671.09 1813.74,-779.68 668.04,-108.5 1029.16,821.77 1283.44,899.01 255.39,77.05 110.26,-134.59 377.31,-346.6 265.85,-212.01 419.12,286.84 413.29,637.05 -5.74,350.21 514.39,682.37 514.39,682.37 0,0 0,0 305.34,-559.35 304.14,-559.16 221.72,-2589.54 -69.65,-2955.1 -25.53,-32.28 -51.15,-65.03 -77.79,-97.87z"></path> <polygon class="fil12" points="30249.2,71415.53 30249.2,74427.43 23120.31,71415.53 "></polygon> <polygon class="fil14" points="67683.98,76693.96 91261.15,76693.96 91261.15,45726.4 67683.98,45726.4 "></polygon> <polygon class="fil15" points="60413.66,76693.96 83991.38,76693.96 83991.38,45726.59 60413.66,45726.59 "></polygon> <polygon class="fil14" points="91260.5,45726.59 91260.5,50357.33 83991.38,45726.59 "></polygon> </g> </svg> 